# xmcd CD database file
#
# Track frame offsets:
#	150
#	19292
#	39737
#	56047
#	86605
#	109080
#	123437
#	148570
#	166772
#	181852
#	209827
#	224107
#	247787
#	273142
#
# Disc length: 3874 seconds
#
# Revision: 0
# Processed by: cddbd v1.5.2PL0 Copyright (c) Steve Scherf et al.
# Submitted via: CDex 1.70beta2
#
DISCID=cd0f200e
DTITLE=Various Artist - Jazz for Lovers
DYEAR=1997
DGENRE=Jazz
TTITLE0=Ruby Braff - I've got a crush on you
TTITLE1=Ricky Woodward - When I fall in love
TTITLE2=Louis Armstrong - C'est si Bon (live)
TTITLE3=Chet Baker - Time after Time
TTITLE4=Zoot Sims - Love me
TTITLE5=Sarah Vaughan - The more I see you
TTITLE6=Roy Williams - Prelude to a kiss
TTITLE7=Seldon Powell - Blue and sentimental
TTITLE8=Buddy Greco - Gee baby, ain't I good to you
TTITLE9=Flip Phillips - Love story
TTITLE10=Irene kral - I like you, you're nice
TTITLE11=Nancy Harrow - Can't we be friends
TTITLE12=David Newton - Teach me tonight
TTITLE13=Shirley Scott - When a man loves a woman
EXTD=YEAR: 1997
EXTT0=
EXTT1=
EXTT2=
EXTT3=
EXTT4=
EXTT5=
EXTT6=
EXTT7=
EXTT8=
EXTT9=
EXTT10=
EXTT11=
EXTT12=
EXTT13=
PLAYORDER=
